<!-- Generator: Adobe Illustrator 18.1.1, SVG Export Plug-In  -->
<svg class="glyf" version="1.0"
	 xmlns="http://www.w3.org/2000/svg" xmlns:xlink="http://www.w3.org/1999/xlink" xmlns:a="http://ns.adobe.com/AdobeSVGViewerExtensions/3.0/"
	 x="0px" y="0px" width="100px" height="100px" viewBox="0 0 100 100" style="enable-background:new 0 0 100 100;"
	 xml:space="preserve">

<defs>
</defs>
<rect class="icon_bg" width="100" height="100"/>
<polygon class="icon_shadow" points="100,39 83.2,22.2 16.9,22.2 14.2,24.9 14.2,74.8 39.5,100 100,100 "/>
<polygon class="icon_main" points="80.6,58.6 80.6,72.1 57.7,72.1 55,74.8 57.7,77.4 83.2,77.4 85.9,74.8 85.9,74.7 
	85.9,74.7 85.9,58.6 83.2,56 	"/>
<polygon class="icon_main" points="19.5,72.1 19.5,58.6 16.9,56 14.2,58.6 14.2,74.7 14.2,74.7 14.2,74.8 16.9,77.4 
	42.4,77.4 45.1,74.8 42.4,72.1 	"/>
<polygon class="icon_main" points="83.2,22.2 57.7,22.2 55,24.9 57.7,27.5 80.6,27.5 80.6,40.9 83.2,43.5 85.9,40.9 
	85.9,24.9 	"/>
<polygon class="icon_main" points="16.9,22.2 14.2,24.9 14.2,40.9 16.9,43.5 19.5,40.9 19.5,27.5 42.4,27.5 45.1,24.9 
	42.4,22.2 	"/>
</svg>
