<svg version="1" xmlns="http://www.w3.org/2000/svg" width="100" height="100" viewBox="0 0 100 100"><path class="icon_bg" d="M0 0h100v100H0z"/><path class="icon_shadow" d="M100 39L83.2 22.2H16.9l-2.7 2.7v49.9L39.5 100H100"/><path class="icon_main" d="M80.6 58.6v13.5H57.7L55 74.8l2.7 2.6h25.5l2.7-2.6V58.6L83.2 56M19.5 72.1V58.6L16.9 56l-2.7 2.6V74.8l2.7 2.6h25.5l2.7-2.6-2.7-2.7M83.2 22.2H57.7L55 24.9l2.7 2.6h22.9v13.4l2.6 2.6 2.7-2.6v-16M16.9 22.2l-2.7 2.7v16l2.7 2.6 2.6-2.6V27.5h22.9l2.7-2.6-2.7-2.7"/></svg>